<svg width="1305" height="3044" viewBox="0 0 1305 3044" fill="none" xmlns="http://www.w3.org/2000/svg">
<path d="M36.9998 62C36.9998 177.79 3.99975 305.5 36.9998 358.5C69.9999 411.5 272.883 366.594 424 372.5C649.803 381.326 863.844 383.387 927 358.5C990.156 333.613 1180.5 347 1248.5 372.5C1316.5 398 1278 678 1278 678C1278 678 1284.82 744.345 1210 762C1040.29 802.046 937.654 753.351 763.5 762C625.267 768.865 548.867 790.377 410.5 793.5C279.601 796.454 126.5 762 75.4997 780C24.4997 798 44.0184 866.834 36.9998 925C27.242 1005.87 52.4998 1133 52.4998 1133C52.4998 1133 51.4997 1155.5 75.4997 1189.5C99.4997 1223.5 315.641 1191.06 469.5 1189.5C705.637 1187.11 838.538 1155.99 1074 1174C1133.3 1178.53 1195 1167 1225.5 1189.5C1256 1212 1246 1408 1246 1448C1246 1488 1252.5 1545 1198.5 1547.5C1144.5 1550 942.179 1569.86 777.5 1572.5C612.854 1575.14 520.652 1558.74 356 1561C246.376 1562.5 128 1539 75.4997 1572.5C22.9997 1606 33.4999 1625.5 36.9998 1710.5C40.4998 1795.5 32.4997 1896.5 75.4997 1928C118.5 1959.5 363.648 1945.9 548.5 1946C736.083 1946.1 931.5 1928 1028.5 1928C1125.5 1928 1249.5 1916.5 1271 1959.5C1292.5 2002.5 1273.44 2065.64 1259.5 2131.5C1250.27 2175.12 1255.2 2207.24 1225.5 2240.5C1192.16 2277.83 1280 2250 1105.5 2285.5C931 2321 819.939 2288.29 637 2285.5C461.01 2282.81 324 2256 186.5 2272C48.9997 2288 76.8185 2261.29 36.9998 2306C-0.191244 2347.76 11.7226 2391.67 14.9998 2447.5C17.9027 2496.95 19.6734 2528.54 45.9998 2570.5C108.893 2670.75 226.493 2611.47 344 2625.5C562.896 2651.63 688.049 2625.5 908.5 2625.5C1014.33 2625.5 1133.5 2613 1179.5 2625.5C1225.5 2638 1236.75 2674.34 1259.5 2715.5C1313 2812.3 1292 2940 1248.5 2998.5C1205 3057 977.893 2998.5 804.5 2998.5C538.748 2998.5 469 2968 124 2998.5" stroke="#EB0028" stroke-width="3" stroke-linecap="round" stroke-dasharray="10 10"/>
<path d="M28.6232 298H18.9032C13.2632 298 12.8282 303.07 15.8732 305.83L31.6532 320.17C34.6982 322.93 34.2632 328 28.6232 328H18.9032C13.2632 328 12.8282 322.93 15.8732 320.17L31.6532 305.83C34.6982 303.07 34.2632 298 28.6232 298Z" fill="black" stroke="white" stroke-width="2" stroke-linecap="round" stroke-linejoin="round"/>
<path d="M279.623 361H269.903C264.263 361 263.828 366.07 266.873 368.83L282.653 383.17C285.698 385.93 285.263 391 279.623 391H269.903C264.263 391 263.828 385.93 266.873 383.17L282.653 368.83C285.698 366.07 285.263 361 279.623 361Z" fill="black" stroke="white" stroke-width="2" stroke-linecap="round" stroke-linejoin="round"/>
<path d="M743.623 360H733.903C728.263 360 727.828 365.07 730.873 367.83L746.653 382.17C749.698 384.93 749.263 390 743.623 390H733.903C728.263 390 727.828 384.93 730.873 382.17L746.653 367.83C749.698 365.07 749.263 360 743.623 360Z" fill="black" stroke="white" stroke-width="2" stroke-linecap="round" stroke-linejoin="round"/>
<path d="M47.25 126.875C47.25 134.12 41.37 140 34.125 140C26.88 140 21 134.12 21 126.875C21 119.63 26.88 113.75 34.125 113.75C41.37 113.75 47.25 119.63 47.25 126.875ZM34.125 119V126.5Z" fill="black"/>
<path d="M34.125 119V126.5M47.25 126.875C47.25 134.12 41.37 140 34.125 140C26.88 140 21 134.12 21 126.875C21 119.63 26.88 113.75 34.125 113.75C41.37 113.75 47.25 119.63 47.25 126.875Z" stroke="white" stroke-width="2" stroke-linecap="round" stroke-linejoin="round"/>
<path d="M29.625 110H38.625Z" fill="black"/>
<path d="M29.625 110H38.625" stroke="white" stroke-width="2" stroke-miterlimit="10" stroke-linecap="round" stroke-linejoin="round"/>
<path d="M599.25 376.875C599.25 384.12 593.37 390 586.125 390C578.88 390 573 384.12 573 376.875C573 369.63 578.88 363.75 586.125 363.75C593.37 363.75 599.25 369.63 599.25 376.875ZM586.125 369V376.5Z" fill="black"/>
<path d="M586.125 369V376.5M599.25 376.875C599.25 384.12 593.37 390 586.125 390C578.88 390 573 384.12 573 376.875C573 369.63 578.88 363.75 586.125 363.75C593.37 363.75 599.25 369.63 599.25 376.875Z" stroke="white" stroke-width="2" stroke-linecap="round" stroke-linejoin="round"/>
<path d="M581.625 360H590.625Z" fill="black"/>
<path d="M581.625 360H590.625" stroke="white" stroke-width="2" stroke-miterlimit="10" stroke-linecap="round" stroke-linejoin="round"/>
<path d="M1065.25 346.875C1065.25 354.12 1059.37 360 1052.12 360C1044.88 360 1039 354.12 1039 346.875C1039 339.63 1044.88 333.75 1052.12 333.75C1059.37 333.75 1065.25 339.63 1065.25 346.875ZM1052.12 339V346.5Z" fill="black"/>
<path d="M1052.12 339V346.5M1065.25 346.875C1065.25 354.12 1059.37 360 1052.12 360C1044.88 360 1039 354.12 1039 346.875C1039 339.63 1044.88 333.75 1052.12 333.75C1059.37 333.75 1065.25 339.63 1065.25 346.875Z" stroke="white" stroke-width="2" stroke-linecap="round" stroke-linejoin="round"/>
<path d="M1047.62 330H1056.62Z" fill="black"/>
<path d="M1047.62 330H1056.62" stroke="white" stroke-width="2" stroke-miterlimit="10" stroke-linecap="round" stroke-linejoin="round"/>
<path d="M25.5 218.5C30.465 218.5 34.5 214.465 34.5 209.5V202C34.5 197.035 30.465 193 25.5 193C20.535 193 16.5 197.035 16.5 202V209.5C16.5 214.465 20.535 218.5 25.5 218.5Z" fill="black" stroke="white" stroke-width="2" stroke-linecap="round" stroke-linejoin="round"/>
<path d="M12 206.5V209.5C12 213.08 13.4223 216.514 15.9541 219.046C18.4858 221.578 21.9196 223 25.5 223C29.0804 223 32.5142 221.578 35.0459 219.046C37.5777 216.514 39 213.08 39 209.5V206.5M21.165 201.22C23.8286 200.245 26.7514 200.245 29.415 201.22ZM22.545 205.72C24.345 205.225 26.25 205.225 28.05 205.72Z" fill="black"/>
<path d="M12 206.5V209.5C12 213.08 13.4223 216.514 15.9541 219.046C18.4858 221.578 21.9196 223 25.5 223C29.0804 223 32.5142 221.578 35.0459 219.046C37.5777 216.514 39 213.08 39 209.5V206.5M21.165 201.22C23.8286 200.245 26.7514 200.245 29.415 201.22M22.545 205.72C24.345 205.225 26.25 205.225 28.05 205.72" stroke="white" stroke-width="2" stroke-linecap="round" stroke-linejoin="round"/>
<path d="M422.5 381.5C427.465 381.5 431.5 377.465 431.5 372.5V365C431.5 360.035 427.465 356 422.5 356C417.535 356 413.5 360.035 413.5 365V372.5C413.5 377.465 417.535 381.5 422.5 381.5Z" fill="black" stroke="white" stroke-width="2" stroke-linecap="round" stroke-linejoin="round"/>
<path d="M409 369.5V372.5C409 376.08 410.422 379.514 412.954 382.046C415.486 384.578 418.92 386 422.5 386C426.08 386 429.514 384.578 432.046 382.046C434.578 379.514 436 376.08 436 372.5V369.5M418.165 364.22C420.829 363.245 423.751 363.245 426.415 364.22ZM419.545 368.72C421.345 368.225 423.25 368.225 425.05 368.72Z" fill="black"/>
<path d="M409 369.5V372.5C409 376.08 410.422 379.514 412.954 382.046C415.486 384.578 418.92 386 422.5 386C426.08 386 429.514 384.578 432.046 382.046C434.578 379.514 436 376.08 436 372.5V369.5M418.165 364.22C420.829 363.245 423.751 363.245 426.415 364.22M419.545 368.72C421.345 368.225 423.25 368.225 425.05 368.72" stroke="white" stroke-width="2" stroke-linecap="round" stroke-linejoin="round"/>
<path d="M893.5 372.5C898.465 372.5 902.5 368.465 902.5 363.5V356C902.5 351.035 898.465 347 893.5 347C888.535 347 884.5 351.035 884.5 356V363.5C884.5 368.465 888.535 372.5 893.5 372.5Z" fill="black" stroke="white" stroke-width="2" stroke-linecap="round" stroke-linejoin="round"/>
<path d="M880 360.5V363.5C880 367.08 881.422 370.514 883.954 373.046C886.486 375.578 889.92 377 893.5 377C897.08 377 900.514 375.578 903.046 373.046C905.578 370.514 907 367.08 907 363.5V360.5M889.165 355.22C891.829 354.245 894.751 354.245 897.415 355.22ZM890.545 359.72C892.345 359.225 894.25 359.225 896.05 359.72Z" fill="black"/>
<path d="M880 360.5V363.5C880 367.08 881.422 370.514 883.954 373.046C886.486 375.578 889.92 377 893.5 377C897.08 377 900.514 375.578 903.046 373.046C905.578 370.514 907 367.08 907 363.5V360.5M889.165 355.22C891.829 354.245 894.751 354.245 897.415 355.22M890.545 359.72C892.345 359.225 894.25 359.225 896.05 359.72" stroke="white" stroke-width="2" stroke-linecap="round" stroke-linejoin="round"/>
<path d="M259.623 770H249.903C244.263 770 243.828 775.07 246.873 777.83L262.653 792.17C265.698 794.93 265.263 800 259.623 800H249.903C244.263 800 243.828 794.93 246.873 792.17L262.653 777.83C265.698 775.07 265.263 770 259.623 770Z" fill="black" stroke="white" stroke-width="2" stroke-linecap="round" stroke-linejoin="round"/>
<path d="M727.623 748H717.903C712.263 748 711.828 753.07 714.873 755.83L730.653 770.17C733.698 772.93 733.263 778 727.623 778H717.903C712.263 778 711.828 772.93 714.873 770.17L730.653 755.83C733.698 753.07 733.263 748 727.623 748Z" fill="black" stroke="white" stroke-width="2" stroke-linecap="round" stroke-linejoin="round"/>
<path d="M582.25 779.875C582.25 787.12 576.37 793 569.125 793C561.88 793 556 787.12 556 779.875C556 772.63 561.88 766.75 569.125 766.75C576.37 766.75 582.25 772.63 582.25 779.875ZM569.125 772V779.5Z" fill="black"/>
<path d="M569.125 772V779.5M582.25 779.875C582.25 787.12 576.37 793 569.125 793C561.88 793 556 787.12 556 779.875C556 772.63 561.88 766.75 569.125 766.75C576.37 766.75 582.25 772.63 582.25 779.875Z" stroke="white" stroke-width="2" stroke-linecap="round" stroke-linejoin="round"/>
<path d="M564.625 763H573.625Z" fill="black"/>
<path d="M564.625 763H573.625" stroke="white" stroke-width="2" stroke-miterlimit="10" stroke-linecap="round" stroke-linejoin="round"/>
<path d="M1052.25 779.875C1052.25 787.12 1046.37 793 1039.12 793C1031.88 793 1026 787.12 1026 779.875C1026 772.63 1031.88 766.75 1039.12 766.75C1046.37 766.75 1052.25 772.63 1052.25 779.875ZM1039.12 772V779.5Z" fill="black"/>
<path d="M1039.12 772V779.5M1052.25 779.875C1052.25 787.12 1046.37 793 1039.12 793C1031.88 793 1026 787.12 1026 779.875C1026 772.63 1031.88 766.75 1039.12 766.75C1046.37 766.75 1052.25 772.63 1052.25 779.875Z" stroke="white" stroke-width="2" stroke-linecap="round" stroke-linejoin="round"/>
<path d="M1034.62 763H1043.62Z" fill="black"/>
<path d="M1034.62 763H1043.62" stroke="white" stroke-width="2" stroke-miterlimit="10" stroke-linecap="round" stroke-linejoin="round"/>
<path d="M408.5 803.5C413.465 803.5 417.5 799.465 417.5 794.5V787C417.5 782.035 413.465 778 408.5 778C403.535 778 399.5 782.035 399.5 787V794.5C399.5 799.465 403.535 803.5 408.5 803.5Z" fill="black" stroke="white" stroke-width="2" stroke-linecap="round" stroke-linejoin="round"/>
<path d="M395 791.5V794.5C395 798.08 396.422 801.514 398.954 804.046C401.486 806.578 404.92 808 408.5 808C412.08 808 415.514 806.578 418.046 804.046C420.578 801.514 422 798.08 422 794.5V791.5M404.165 786.22C406.829 785.245 409.751 785.245 412.415 786.22ZM405.545 790.72C407.345 790.225 409.25 790.225 411.05 790.72Z" fill="black"/>
<path d="M395 791.5V794.5C395 798.08 396.422 801.514 398.954 804.046C401.486 806.578 404.92 808 408.5 808C412.08 808 415.514 806.578 418.046 804.046C420.578 801.514 422 798.08 422 794.5V791.5M404.165 786.22C406.829 785.245 409.751 785.245 412.415 786.22M405.545 790.72C407.345 790.225 409.25 790.225 411.05 790.72" stroke="white" stroke-width="2" stroke-linecap="round" stroke-linejoin="round"/>
<path d="M876.5 766.5C881.465 766.5 885.5 762.465 885.5 757.5V750C885.5 745.035 881.465 741 876.5 741C871.535 741 867.5 745.035 867.5 750V757.5C867.5 762.465 871.535 766.5 876.5 766.5Z" fill="black" stroke="white" stroke-width="2" stroke-linecap="round" stroke-linejoin="round"/>
<path d="M863 754.5V757.5C863 761.08 864.422 764.514 866.954 767.046C869.486 769.578 872.92 771 876.5 771C880.08 771 883.514 769.578 886.046 767.046C888.578 764.514 890 761.08 890 757.5V754.5M872.165 749.22C874.829 748.245 877.751 748.245 880.415 749.22ZM873.545 753.72C875.345 753.225 877.25 753.225 879.05 753.72Z" fill="black"/>
<path d="M863 754.5V757.5C863 761.08 864.422 764.514 866.954 767.046C869.486 769.578 872.92 771 876.5 771C880.08 771 883.514 769.578 886.046 767.046C888.578 764.514 890 761.08 890 757.5V754.5M872.165 749.22C874.829 748.245 877.751 748.245 880.415 749.22M873.545 753.72C875.345 753.225 877.25 753.225 879.05 753.72" stroke="white" stroke-width="2" stroke-linecap="round" stroke-linejoin="round"/>
<path d="M249.623 1186H239.903C234.263 1186 233.828 1191.07 236.873 1193.83L252.653 1208.17C255.698 1210.93 255.263 1216 249.623 1216H239.903C234.263 1216 233.828 1210.93 236.873 1208.17L252.653 1193.83C255.698 1191.07 255.263 1186 249.623 1186Z" fill="black" stroke="white" stroke-width="2" stroke-linecap="round" stroke-linejoin="round"/>
<path d="M713.623 1162H703.903C698.263 1162 697.828 1167.07 700.873 1169.83L716.653 1184.17C719.698 1186.93 719.263 1192 713.623 1192H703.903C698.263 1192 697.828 1186.93 700.873 1184.17L716.653 1169.83C719.698 1167.07 719.263 1162 713.623 1162Z" fill="black" stroke="white" stroke-width="2" stroke-linecap="round" stroke-linejoin="round"/>
<path d="M569.25 1185.88C569.25 1193.12 563.37 1199 556.125 1199C548.88 1199 543 1193.12 543 1185.88C543 1178.63 548.88 1172.75 556.125 1172.75C563.37 1172.75 569.25 1178.63 569.25 1185.88ZM556.125 1178V1185.5Z" fill="black"/>
<path d="M556.125 1178V1185.5M569.25 1185.88C569.25 1193.12 563.37 1199 556.125 1199C548.88 1199 543 1193.12 543 1185.88C543 1178.63 548.88 1172.75 556.125 1172.75C563.37 1172.75 569.25 1178.63 569.25 1185.88Z" stroke="white" stroke-width="2" stroke-linecap="round" stroke-linejoin="round"/>
<path d="M551.625 1169H560.625Z" fill="black"/>
<path d="M551.625 1169H560.625" stroke="white" stroke-width="2" stroke-miterlimit="10" stroke-linecap="round" stroke-linejoin="round"/>
<path d="M1035.25 1168.88C1035.25 1176.12 1029.37 1182 1022.12 1182C1014.88 1182 1009 1176.12 1009 1168.88C1009 1161.63 1014.88 1155.75 1022.12 1155.75C1029.37 1155.75 1035.25 1161.63 1035.25 1168.88ZM1022.12 1161V1168.5Z" fill="black"/>
<path d="M1022.12 1161V1168.5M1035.25 1168.88C1035.25 1176.12 1029.37 1182 1022.12 1182C1014.88 1182 1009 1176.12 1009 1168.88C1009 1161.63 1014.88 1155.75 1022.12 1155.75C1029.37 1155.75 1035.25 1161.63 1035.25 1168.88Z" stroke="white" stroke-width="2" stroke-linecap="round" stroke-linejoin="round"/>
<path d="M1017.62 1152H1026.62Z" fill="black"/>
<path d="M1017.62 1152H1026.62" stroke="white" stroke-width="2" stroke-miterlimit="10" stroke-linecap="round" stroke-linejoin="round"/>
<path d="M394.5 1200.5C399.465 1200.5 403.5 1196.46 403.5 1191.5V1184C403.5 1179.04 399.465 1175 394.5 1175C389.535 1175 385.5 1179.04 385.5 1184V1191.5C385.5 1196.46 389.535 1200.5 394.5 1200.5Z" fill="black" stroke="white" stroke-width="2" stroke-linecap="round" stroke-linejoin="round"/>
<path d="M381 1188.5V1191.5C381 1195.08 382.422 1198.51 384.954 1201.05C387.486 1203.58 390.92 1205 394.5 1205C398.08 1205 401.514 1203.58 404.046 1201.05C406.578 1198.51 408 1195.08 408 1191.5V1188.5M390.165 1183.22C392.829 1182.25 395.751 1182.25 398.415 1183.22ZM391.545 1187.72C393.345 1187.23 395.25 1187.23 397.05 1187.72Z" fill="black"/>
<path d="M381 1188.5V1191.5C381 1195.08 382.422 1198.51 384.954 1201.05C387.486 1203.58 390.92 1205 394.5 1205C398.08 1205 401.514 1203.58 404.046 1201.05C406.578 1198.51 408 1195.08 408 1191.5V1188.5M390.165 1183.22C392.829 1182.25 395.751 1182.25 398.415 1183.22M391.545 1187.72C393.345 1187.23 395.25 1187.23 397.05 1187.72" stroke="white" stroke-width="2" stroke-linecap="round" stroke-linejoin="round"/>
<path d="M863.5 1177.5C868.465 1177.5 872.5 1173.46 872.5 1168.5V1161C872.5 1156.04 868.465 1152 863.5 1152C858.535 1152 854.5 1156.04 854.5 1161V1168.5C854.5 1173.46 858.535 1177.5 863.5 1177.5Z" fill="black" stroke="white" stroke-width="2" stroke-linecap="round" stroke-linejoin="round"/>
<path d="M850 1165.5V1168.5C850 1172.08 851.422 1175.51 853.954 1178.05C856.486 1180.58 859.92 1182 863.5 1182C867.08 1182 870.514 1180.58 873.046 1178.05C875.578 1175.51 877 1172.08 877 1168.5V1165.5M859.165 1160.22C861.829 1159.25 864.751 1159.25 867.415 1160.22ZM860.545 1164.72C862.345 1164.23 864.25 1164.23 866.05 1164.72Z" fill="black"/>
<path d="M850 1165.5V1168.5C850 1172.08 851.422 1175.51 853.954 1178.05C856.486 1180.58 859.92 1182 863.5 1182C867.08 1182 870.514 1180.58 873.046 1178.05C875.578 1175.51 877 1172.08 877 1168.5V1165.5M859.165 1160.22C861.829 1159.25 864.751 1159.25 867.415 1160.22M860.545 1164.72C862.345 1164.23 864.25 1164.23 866.05 1164.72" stroke="white" stroke-width="2" stroke-linecap="round" stroke-linejoin="round"/>
<path d="M249.623 1540H239.903C234.263 1540 233.828 1545.07 236.873 1547.83L252.653 1562.17C255.698 1564.93 255.263 1570 249.623 1570H239.903C234.263 1570 233.828 1564.93 236.873 1562.17L252.653 1547.83C255.698 1545.07 255.263 1540 249.623 1540Z" fill="black" stroke="white" stroke-width="2" stroke-linecap="round" stroke-linejoin="round"/>
<path d="M713.623 1558H703.903C698.263 1558 697.828 1563.07 700.873 1565.83L716.653 1580.17C719.698 1582.93 719.263 1588 713.623 1588H703.903C698.263 1588 697.828 1582.93 700.873 1580.17L716.653 1565.83C719.698 1563.07 719.263 1558 713.623 1558Z" fill="black" stroke="white" stroke-width="2" stroke-linecap="round" stroke-linejoin="round"/>
<path d="M569.25 1567.88C569.25 1575.12 563.37 1581 556.125 1581C548.88 1581 543 1575.12 543 1567.88C543 1560.63 548.88 1554.75 556.125 1554.75C563.37 1554.75 569.25 1560.63 569.25 1567.88ZM556.125 1560V1567.5Z" fill="black"/>
<path d="M556.125 1560V1567.5M569.25 1567.88C569.25 1575.12 563.37 1581 556.125 1581C548.88 1581 543 1575.12 543 1567.88C543 1560.63 548.88 1554.75 556.125 1554.75C563.37 1554.75 569.25 1560.63 569.25 1567.88Z" stroke="white" stroke-width="2" stroke-linecap="round" stroke-linejoin="round"/>
<path d="M551.625 1551H560.625Z" fill="black"/>
<path d="M551.625 1551H560.625" stroke="white" stroke-width="2" stroke-miterlimit="10" stroke-linecap="round" stroke-linejoin="round"/>
<path d="M1035.25 1557.88C1035.25 1565.12 1029.37 1571 1022.12 1571C1014.88 1571 1009 1565.12 1009 1557.88C1009 1550.63 1014.88 1544.75 1022.12 1544.75C1029.37 1544.75 1035.25 1550.63 1035.25 1557.88ZM1022.12 1550V1557.5Z" fill="black"/>
<path d="M1022.12 1550V1557.5M1035.25 1557.88C1035.25 1565.12 1029.37 1571 1022.12 1571C1014.88 1571 1009 1565.12 1009 1557.88C1009 1550.63 1014.88 1544.75 1022.12 1544.75C1029.37 1544.75 1035.25 1550.63 1035.25 1557.88Z" stroke="white" stroke-width="2" stroke-linecap="round" stroke-linejoin="round"/>
<path d="M1017.62 1541H1026.62Z" fill="black"/>
<path d="M1017.62 1541H1026.62" stroke="white" stroke-width="2" stroke-miterlimit="10" stroke-linecap="round" stroke-linejoin="round"/>
<path d="M392.5 1572.5C397.465 1572.5 401.5 1568.46 401.5 1563.5V1556C401.5 1551.04 397.465 1547 392.5 1547C387.535 1547 383.5 1551.04 383.5 1556V1563.5C383.5 1568.46 387.535 1572.5 392.5 1572.5Z" fill="black" stroke="white" stroke-width="2" stroke-linecap="round" stroke-linejoin="round"/>
<path d="M379 1560.5V1563.5C379 1567.08 380.422 1570.51 382.954 1573.05C385.486 1575.58 388.92 1577 392.5 1577C396.08 1577 399.514 1575.58 402.046 1573.05C404.578 1570.51 406 1567.08 406 1563.5V1560.5M388.165 1555.22C390.829 1554.25 393.751 1554.25 396.415 1555.22ZM389.545 1559.72C391.345 1559.23 393.25 1559.23 395.05 1559.72Z" fill="black"/>
<path d="M379 1560.5V1563.5C379 1567.08 380.422 1570.51 382.954 1573.05C385.486 1575.58 388.92 1577 392.5 1577C396.08 1577 399.514 1575.58 402.046 1573.05C404.578 1570.51 406 1567.08 406 1563.5V1560.5M388.165 1555.22C390.829 1554.25 393.751 1554.25 396.415 1555.22M389.545 1559.72C391.345 1559.23 393.25 1559.23 395.05 1559.72" stroke="white" stroke-width="2" stroke-linecap="round" stroke-linejoin="round"/>
<path d="M863.5 1576.5C868.465 1576.5 872.5 1572.46 872.5 1567.5V1560C872.5 1555.04 868.465 1551 863.5 1551C858.535 1551 854.5 1555.04 854.5 1560V1567.5C854.5 1572.46 858.535 1576.5 863.5 1576.5Z" fill="black" stroke="white" stroke-width="2" stroke-linecap="round" stroke-linejoin="round"/>
<path d="M850 1564.5V1567.5C850 1571.08 851.422 1574.51 853.954 1577.05C856.486 1579.58 859.92 1581 863.5 1581C867.08 1581 870.514 1579.58 873.046 1577.05C875.578 1574.51 877 1571.08 877 1567.5V1564.5M859.165 1559.22C861.829 1558.25 864.751 1558.25 867.415 1559.22ZM860.545 1563.72C862.345 1563.23 864.25 1563.23 866.05 1563.72Z" fill="black"/>
<path d="M850 1564.5V1567.5C850 1571.08 851.422 1574.51 853.954 1577.05C856.486 1579.58 859.92 1581 863.5 1581C867.08 1581 870.514 1579.58 873.046 1577.05C875.578 1574.51 877 1571.08 877 1567.5V1564.5M859.165 1559.22C861.829 1558.25 864.751 1558.25 867.415 1559.22M860.545 1563.72C862.345 1563.23 864.25 1563.23 866.05 1563.72" stroke="white" stroke-width="2" stroke-linecap="round" stroke-linejoin="round"/>
<path d="M259.623 1932H249.903C244.263 1932 243.828 1937.07 246.873 1939.83L262.653 1954.17C265.698 1956.93 265.263 1962 259.623 1962H249.903C244.263 1962 243.828 1956.93 246.873 1954.17L262.653 1939.83C265.698 1937.07 265.263 1932 259.623 1932Z" fill="black" stroke="white" stroke-width="2" stroke-linecap="round" stroke-linejoin="round"/>
<path d="M717.623 1927H707.903C702.263 1927 701.828 1932.07 704.873 1934.83L720.653 1949.17C723.698 1951.93 723.263 1957 717.623 1957H707.903C702.263 1957 701.828 1951.93 704.873 1949.17L720.653 1934.83C723.698 1932.07 723.263 1927 717.623 1927Z" fill="black" stroke="white" stroke-width="2" stroke-linecap="round" stroke-linejoin="round"/>
<path d="M574.25 1944.88C574.25 1952.12 568.37 1958 561.125 1958C553.88 1958 548 1952.12 548 1944.88C548 1937.63 553.88 1931.75 561.125 1931.75C568.37 1931.75 574.25 1937.63 574.25 1944.88ZM561.125 1937V1944.5Z" fill="black"/>
<path d="M561.125 1937V1944.5M574.25 1944.88C574.25 1952.12 568.37 1958 561.125 1958C553.88 1958 548 1952.12 548 1944.88C548 1937.63 553.88 1931.75 561.125 1931.75C568.37 1931.75 574.25 1937.63 574.25 1944.88Z" stroke="white" stroke-width="2" stroke-linecap="round" stroke-linejoin="round"/>
<path d="M556.625 1928H565.625Z" fill="black"/>
<path d="M556.625 1928H565.625" stroke="white" stroke-width="2" stroke-miterlimit="10" stroke-linecap="round" stroke-linejoin="round"/>
<path d="M1043.25 1925.88C1043.25 1933.12 1037.37 1939 1030.12 1939C1022.88 1939 1017 1933.12 1017 1925.88C1017 1918.63 1022.88 1912.75 1030.12 1912.75C1037.37 1912.75 1043.25 1918.63 1043.25 1925.88ZM1030.12 1918V1925.5Z" fill="black"/>
<path d="M1030.12 1918V1925.5M1043.25 1925.88C1043.25 1933.12 1037.37 1939 1030.12 1939C1022.88 1939 1017 1933.12 1017 1925.88C1017 1918.63 1022.88 1912.75 1030.12 1912.75C1037.37 1912.75 1043.25 1918.63 1043.25 1925.88Z" stroke="white" stroke-width="2" stroke-linecap="round" stroke-linejoin="round"/>
<path d="M1025.62 1909H1034.62Z" fill="black"/>
<path d="M1025.62 1909H1034.62" stroke="white" stroke-width="2" stroke-miterlimit="10" stroke-linecap="round" stroke-linejoin="round"/>
<path d="M401.5 1956.5C406.465 1956.5 410.5 1952.46 410.5 1947.5V1940C410.5 1935.04 406.465 1931 401.5 1931C396.535 1931 392.5 1935.04 392.5 1940V1947.5C392.5 1952.46 396.535 1956.5 401.5 1956.5Z" fill="black" stroke="white" stroke-width="2" stroke-linecap="round" stroke-linejoin="round"/>
<path d="M388 1944.5V1947.5C388 1951.08 389.422 1954.51 391.954 1957.05C394.486 1959.58 397.92 1961 401.5 1961C405.08 1961 408.514 1959.58 411.046 1957.05C413.578 1954.51 415 1951.08 415 1947.5V1944.5M397.165 1939.22C399.829 1938.25 402.751 1938.25 405.415 1939.22ZM398.545 1943.72C400.345 1943.23 402.25 1943.23 404.05 1943.72Z" fill="black"/>
<path d="M388 1944.5V1947.5C388 1951.08 389.422 1954.51 391.954 1957.05C394.486 1959.58 397.92 1961 401.5 1961C405.08 1961 408.514 1959.58 411.046 1957.05C413.578 1954.51 415 1951.08 415 1947.5V1944.5M397.165 1939.22C399.829 1938.25 402.751 1938.25 405.415 1939.22M398.545 1943.72C400.345 1943.23 402.25 1943.23 404.05 1943.72" stroke="white" stroke-width="2" stroke-linecap="round" stroke-linejoin="round"/>
<path d="M872.5 1942.5C877.465 1942.5 881.5 1938.46 881.5 1933.5V1926C881.5 1921.04 877.465 1917 872.5 1917C867.535 1917 863.5 1921.04 863.5 1926V1933.5C863.5 1938.46 867.535 1942.5 872.5 1942.5Z" fill="black" stroke="white" stroke-width="2" stroke-linecap="round" stroke-linejoin="round"/>
<path d="M859 1930.5V1933.5C859 1937.08 860.422 1940.51 862.954 1943.05C865.486 1945.58 868.92 1947 872.5 1947C876.08 1947 879.514 1945.58 882.046 1943.05C884.578 1940.51 886 1937.08 886 1933.5V1930.5M868.165 1925.22C870.829 1924.25 873.751 1924.25 876.415 1925.22ZM869.545 1929.72C871.345 1929.23 873.25 1929.23 875.05 1929.72Z" fill="black"/>
<path d="M859 1930.5V1933.5C859 1937.08 860.422 1940.51 862.954 1943.05C865.486 1945.58 868.92 1947 872.5 1947C876.08 1947 879.514 1945.58 882.046 1943.05C884.578 1940.51 886 1937.08 886 1933.5V1930.5M868.165 1925.22C870.829 1924.25 873.751 1924.25 876.415 1925.22M869.545 1929.72C871.345 1929.23 873.25 1929.23 875.05 1929.72" stroke="white" stroke-width="2" stroke-linecap="round" stroke-linejoin="round"/>
<path d="M209.623 2255H199.903C194.263 2255 193.828 2260.07 196.873 2262.83L212.653 2277.17C215.698 2279.93 215.263 2285 209.623 2285H199.903C194.263 2285 193.828 2279.93 196.873 2277.17L212.653 2262.83C215.698 2260.07 215.263 2255 209.623 2255Z" fill="black" stroke="white" stroke-width="2" stroke-linecap="round" stroke-linejoin="round"/>
<path d="M673.623 2270H663.903C658.263 2270 657.828 2275.07 660.873 2277.83L676.653 2292.17C679.698 2294.93 679.263 2300 673.623 2300H663.903C658.263 2300 657.828 2294.93 660.873 2292.17L676.653 2277.83C679.698 2275.07 679.263 2270 673.623 2270Z" fill="black" stroke="white" stroke-width="2" stroke-linecap="round" stroke-linejoin="round"/>
<path d="M531.25 2280.88C531.25 2288.12 525.37 2294 518.125 2294C510.88 2294 505 2288.12 505 2280.88C505 2273.63 510.88 2267.75 518.125 2267.75C525.37 2267.75 531.25 2273.63 531.25 2280.88ZM518.125 2273V2280.5Z" fill="black"/>
<path d="M518.125 2273V2280.5M531.25 2280.88C531.25 2288.12 525.37 2294 518.125 2294C510.88 2294 505 2288.12 505 2280.88C505 2273.63 510.88 2267.75 518.125 2267.75C525.37 2267.75 531.25 2273.63 531.25 2280.88Z" stroke="white" stroke-width="2" stroke-linecap="round" stroke-linejoin="round"/>
<path d="M513.625 2264H522.625Z" fill="black"/>
<path d="M513.625 2264H522.625" stroke="white" stroke-width="2" stroke-miterlimit="10" stroke-linecap="round" stroke-linejoin="round"/>
<path d="M1001.25 2298.88C1001.25 2306.12 995.37 2312 988.125 2312C980.88 2312 975 2306.12 975 2298.88C975 2291.63 980.88 2285.75 988.125 2285.75C995.37 2285.75 1001.25 2291.63 1001.25 2298.88ZM988.125 2291V2298.5Z" fill="black"/>
<path d="M988.125 2291V2298.5M1001.25 2298.88C1001.25 2306.12 995.37 2312 988.125 2312C980.88 2312 975 2306.12 975 2298.88C975 2291.63 980.88 2285.75 988.125 2285.75C995.37 2285.75 1001.25 2291.63 1001.25 2298.88Z" stroke="white" stroke-width="2" stroke-linecap="round" stroke-linejoin="round"/>
<path d="M983.625 2282H992.625Z" fill="black"/>
<path d="M983.625 2282H992.625" stroke="white" stroke-width="2" stroke-miterlimit="10" stroke-linecap="round" stroke-linejoin="round"/>
<path d="M353.5 2274.5C358.465 2274.5 362.5 2270.46 362.5 2265.5V2258C362.5 2253.04 358.465 2249 353.5 2249C348.535 2249 344.5 2253.04 344.5 2258V2265.5C344.5 2270.46 348.535 2274.5 353.5 2274.5Z" fill="black" stroke="white" stroke-width="2" stroke-linecap="round" stroke-linejoin="round"/>
<path d="M340 2262.5V2265.5C340 2269.08 341.422 2272.51 343.954 2275.05C346.486 2277.58 349.92 2279 353.5 2279C357.08 2279 360.514 2277.58 363.046 2275.05C365.578 2272.51 367 2269.08 367 2265.5V2262.5M349.165 2257.22C351.829 2256.25 354.751 2256.25 357.415 2257.22ZM350.545 2261.72C352.345 2261.23 354.25 2261.23 356.05 2261.72Z" fill="black"/>
<path d="M340 2262.5V2265.5C340 2269.08 341.422 2272.51 343.954 2275.05C346.486 2277.58 349.92 2279 353.5 2279C357.08 2279 360.514 2277.58 363.046 2275.05C365.578 2272.51 367 2269.08 367 2265.5V2262.5M349.165 2257.22C351.829 2256.25 354.751 2256.25 357.415 2257.22M350.545 2261.72C352.345 2261.23 354.25 2261.23 356.05 2261.72" stroke="white" stroke-width="2" stroke-linecap="round" stroke-linejoin="round"/>
<path d="M824.5 2297.5C829.465 2297.5 833.5 2293.46 833.5 2288.5V2281C833.5 2276.04 829.465 2272 824.5 2272C819.535 2272 815.5 2276.04 815.5 2281V2288.5C815.5 2293.46 819.535 2297.5 824.5 2297.5Z" fill="black" stroke="white" stroke-width="2" stroke-linecap="round" stroke-linejoin="round"/>
<path d="M811 2285.5V2288.5C811 2292.08 812.422 2295.51 814.954 2298.05C817.486 2300.58 820.92 2302 824.5 2302C828.08 2302 831.514 2300.58 834.046 2298.05C836.578 2295.51 838 2292.08 838 2288.5V2285.5M820.165 2280.22C822.829 2279.25 825.751 2279.25 828.415 2280.22ZM821.545 2284.72C823.345 2284.23 825.25 2284.23 827.05 2284.72Z" fill="black"/>
<path d="M811 2285.5V2288.5C811 2292.08 812.422 2295.51 814.954 2298.05C817.486 2300.58 820.92 2302 824.5 2302C828.08 2302 831.514 2300.58 834.046 2298.05C836.578 2295.51 838 2292.08 838 2288.5V2285.5M820.165 2280.22C822.829 2279.25 825.751 2279.25 828.415 2280.22M821.545 2284.72C823.345 2284.23 825.25 2284.23 827.05 2284.72" stroke="white" stroke-width="2" stroke-linecap="round" stroke-linejoin="round"/>
<path d="M219.623 2610H209.903C204.263 2610 203.828 2615.07 206.873 2617.83L222.653 2632.17C225.698 2634.93 225.263 2640 219.623 2640H209.903C204.263 2640 203.828 2634.93 206.873 2632.17L222.653 2617.83C225.698 2615.07 225.263 2610 219.623 2610Z" fill="black" stroke="white" stroke-width="2" stroke-linecap="round" stroke-linejoin="round"/>
<path d="M683.623 2620H673.903C668.263 2620 667.828 2625.07 670.873 2627.83L686.653 2642.17C689.698 2644.93 689.263 2650 683.623 2650H673.903C668.263 2650 667.828 2644.93 670.873 2642.17L686.653 2627.83C689.698 2625.07 689.263 2620 683.623 2620Z" fill="black" stroke="white" stroke-width="2" stroke-linecap="round" stroke-linejoin="round"/>
<path d="M540.25 2638.88C540.25 2646.12 534.37 2652 527.125 2652C519.88 2652 514 2646.12 514 2638.88C514 2631.63 519.88 2625.75 527.125 2625.75C534.37 2625.75 540.25 2631.63 540.25 2638.88ZM527.125 2631V2638.5Z" fill="black"/>
<path d="M527.125 2631V2638.5M540.25 2638.88C540.25 2646.12 534.37 2652 527.125 2652C519.88 2652 514 2646.12 514 2638.88C514 2631.63 519.88 2625.75 527.125 2625.75C534.37 2625.75 540.25 2631.63 540.25 2638.88Z" stroke="white" stroke-width="2" stroke-linecap="round" stroke-linejoin="round"/>
<path d="M522.625 2622H531.625Z" fill="black"/>
<path d="M522.625 2622H531.625" stroke="white" stroke-width="2" stroke-miterlimit="10" stroke-linecap="round" stroke-linejoin="round"/>
<path d="M1005.25 2623.88C1005.25 2631.12 999.37 2637 992.125 2637C984.88 2637 979 2631.12 979 2623.88C979 2616.63 984.88 2610.75 992.125 2610.75C999.37 2610.75 1005.25 2616.63 1005.25 2623.88ZM992.125 2616V2623.5Z" fill="black"/>
<path d="M992.125 2616V2623.5M1005.25 2623.88C1005.25 2631.12 999.37 2637 992.125 2637C984.88 2637 979 2631.12 979 2623.88C979 2616.63 984.88 2610.75 992.125 2610.75C999.37 2610.75 1005.25 2616.63 1005.25 2623.88Z" stroke="white" stroke-width="2" stroke-linecap="round" stroke-linejoin="round"/>
<path d="M987.625 2607H996.625Z" fill="black"/>
<path d="M987.625 2607H996.625" stroke="white" stroke-width="2" stroke-miterlimit="10" stroke-linecap="round" stroke-linejoin="round"/>
<path d="M362.5 2635.5C367.465 2635.5 371.5 2631.46 371.5 2626.5V2619C371.5 2614.04 367.465 2610 362.5 2610C357.535 2610 353.5 2614.04 353.5 2619V2626.5C353.5 2631.46 357.535 2635.5 362.5 2635.5Z" fill="black" stroke="white" stroke-width="2" stroke-linecap="round" stroke-linejoin="round"/>
<path d="M349 2623.5V2626.5C349 2630.08 350.422 2633.51 352.954 2636.05C355.486 2638.58 358.92 2640 362.5 2640C366.08 2640 369.514 2638.58 372.046 2636.05C374.578 2633.51 376 2630.08 376 2626.5V2623.5M358.165 2618.22C360.829 2617.25 363.751 2617.25 366.415 2618.22ZM359.545 2622.72C361.345 2622.23 363.25 2622.23 365.05 2622.72Z" fill="black"/>
<path d="M349 2623.5V2626.5C349 2630.08 350.422 2633.51 352.954 2636.05C355.486 2638.58 358.92 2640 362.5 2640C366.08 2640 369.514 2638.58 372.046 2636.05C374.578 2633.51 376 2630.08 376 2626.5V2623.5M358.165 2618.22C360.829 2617.25 363.751 2617.25 366.415 2618.22M359.545 2622.72C361.345 2622.23 363.25 2622.23 365.05 2622.72" stroke="white" stroke-width="2" stroke-linecap="round" stroke-linejoin="round"/>
<path d="M833.5 2633.5C838.465 2633.5 842.5 2629.46 842.5 2624.5V2617C842.5 2612.04 838.465 2608 833.5 2608C828.535 2608 824.5 2612.04 824.5 2617V2624.5C824.5 2629.46 828.535 2633.5 833.5 2633.5Z" fill="black" stroke="white" stroke-width="2" stroke-linecap="round" stroke-linejoin="round"/>
<path d="M820 2621.5V2624.5C820 2628.08 821.422 2631.51 823.954 2634.05C826.486 2636.58 829.92 2638 833.5 2638C837.08 2638 840.514 2636.58 843.046 2634.05C845.578 2631.51 847 2628.08 847 2624.5V2621.5M829.165 2616.22C831.829 2615.25 834.751 2615.25 837.415 2616.22ZM830.545 2620.72C832.345 2620.23 834.25 2620.23 836.05 2620.72Z" fill="black"/>
<path d="M820 2621.5V2624.5C820 2628.08 821.422 2631.51 823.954 2634.05C826.486 2636.58 829.92 2638 833.5 2638C837.08 2638 840.514 2636.58 843.046 2634.05C845.578 2631.51 847 2628.08 847 2624.5V2621.5M829.165 2616.22C831.829 2615.25 834.751 2615.25 837.415 2616.22M830.545 2620.72C832.345 2620.23 834.25 2620.23 836.05 2620.72" stroke="white" stroke-width="2" stroke-linecap="round" stroke-linejoin="round"/>
<path d="M219.623 2975H209.903C204.263 2975 203.828 2980.07 206.873 2982.83L222.653 2997.17C225.698 2999.93 225.263 3005 219.623 3005H209.903C204.263 3005 203.828 2999.93 206.873 2997.17L222.653 2982.83C225.698 2980.07 225.263 2975 219.623 2975Z" fill="black" stroke="white" stroke-width="2" stroke-linecap="round" stroke-linejoin="round"/>
<path d="M684.623 2981H674.903C669.263 2981 668.828 2986.07 671.873 2988.83L687.653 3003.17C690.698 3005.93 690.263 3011 684.623 3011H674.903C669.263 3011 668.828 3005.93 671.873 3003.17L687.653 2988.83C690.698 2986.07 690.263 2981 684.623 2981Z" fill="black" stroke="white" stroke-width="2" stroke-linecap="round" stroke-linejoin="round"/>
<path d="M540.25 2991.88C540.25 2999.12 534.37 3005 527.125 3005C519.88 3005 514 2999.12 514 2991.88C514 2984.63 519.88 2978.75 527.125 2978.75C534.37 2978.75 540.25 2984.63 540.25 2991.88ZM527.125 2984V2991.5Z" fill="black"/>
<path d="M527.125 2984V2991.5M540.25 2991.88C540.25 2999.12 534.37 3005 527.125 3005C519.88 3005 514 2999.12 514 2991.88C514 2984.63 519.88 2978.75 527.125 2978.75C534.37 2978.75 540.25 2984.63 540.25 2991.88Z" stroke="white" stroke-width="2" stroke-linecap="round" stroke-linejoin="round"/>
<path d="M522.625 2975H531.625Z" fill="black"/>
<path d="M522.625 2975H531.625" stroke="white" stroke-width="2" stroke-miterlimit="10" stroke-linecap="round" stroke-linejoin="round"/>
<path d="M1005.25 3013.88C1005.25 3021.12 999.37 3027 992.125 3027C984.88 3027 979 3021.12 979 3013.88C979 3006.63 984.88 3000.75 992.125 3000.75C999.37 3000.75 1005.25 3006.63 1005.25 3013.88ZM992.125 3006V3013.5Z" fill="black"/>
<path d="M992.125 3006V3013.5M1005.25 3013.88C1005.25 3021.12 999.37 3027 992.125 3027C984.88 3027 979 3021.12 979 3013.88C979 3006.63 984.88 3000.75 992.125 3000.75C999.37 3000.75 1005.25 3006.63 1005.25 3013.88Z" stroke="white" stroke-width="2" stroke-linecap="round" stroke-linejoin="round"/>
<path d="M987.625 2997H996.625Z" fill="black"/>
<path d="M987.625 2997H996.625" stroke="white" stroke-width="2" stroke-miterlimit="10" stroke-linecap="round" stroke-linejoin="round"/>
<path d="M362.5 2996.5C367.465 2996.5 371.5 2992.46 371.5 2987.5V2980C371.5 2975.04 367.465 2971 362.5 2971C357.535 2971 353.5 2975.04 353.5 2980V2987.5C353.5 2992.46 357.535 2996.5 362.5 2996.5Z" fill="black" stroke="white" stroke-width="2" stroke-linecap="round" stroke-linejoin="round"/>
<path d="M349 2984.5V2987.5C349 2991.08 350.422 2994.51 352.954 2997.05C355.486 2999.58 358.92 3001 362.5 3001C366.08 3001 369.514 2999.58 372.046 2997.05C374.578 2994.51 376 2991.08 376 2987.5V2984.5M358.165 2979.22C360.829 2978.24 363.751 2978.24 366.415 2979.22ZM359.545 2983.72C361.345 2983.23 363.25 2983.23 365.05 2983.72Z" fill="black"/>
<path d="M349 2984.5V2987.5C349 2991.08 350.422 2994.51 352.954 2997.05C355.486 2999.58 358.92 3001 362.5 3001C366.08 3001 369.514 2999.58 372.046 2997.05C374.578 2994.51 376 2991.08 376 2987.5V2984.5M358.165 2979.22C360.829 2978.24 363.751 2978.24 366.415 2979.22M359.545 2983.72C361.345 2983.23 363.25 2983.23 365.05 2983.72" stroke="white" stroke-width="2" stroke-linecap="round" stroke-linejoin="round"/>
<path d="M833.5 3008.5C838.465 3008.5 842.5 3004.46 842.5 2999.5V2992C842.5 2987.04 838.465 2983 833.5 2983C828.535 2983 824.5 2987.04 824.5 2992V2999.5C824.5 3004.46 828.535 3008.5 833.5 3008.5Z" fill="black" stroke="white" stroke-width="2" stroke-linecap="round" stroke-linejoin="round"/>
<path d="M820 2996.5V2999.5C820 3003.08 821.422 3006.51 823.954 3009.05C826.486 3011.58 829.92 3013 833.5 3013C837.08 3013 840.514 3011.58 843.046 3009.05C845.578 3006.51 847 3003.08 847 2999.5V2996.5M829.165 2991.22C831.829 2990.24 834.751 2990.24 837.415 2991.22ZM830.545 2995.72C832.345 2995.23 834.25 2995.23 836.05 2995.72Z" fill="black"/>
<path d="M820 2996.5V2999.5C820 3003.08 821.422 3006.51 823.954 3009.05C826.486 3011.58 829.92 3013 833.5 3013C837.08 3013 840.514 3011.58 843.046 3009.05C845.578 3006.51 847 3003.08 847 2999.5V2996.5M829.165 2991.22C831.829 2990.24 834.751 2990.24 837.415 2991.22M830.545 2995.72C832.345 2995.23 834.25 2995.23 836.05 2995.72" stroke="white" stroke-width="2" stroke-linecap="round" stroke-linejoin="round"/>
<path d="M52.6232 1099H42.9032C37.2632 1099 36.8282 1104.07 39.8732 1106.83L55.6532 1121.17C58.6982 1123.93 58.2632 1129 52.6232 1129H42.9032C37.2632 1129 36.8282 1123.93 39.8732 1121.17L55.6532 1106.83C58.6982 1104.07 58.2632 1099 52.6232 1099Z" fill="black" stroke="white" stroke-width="2" stroke-linecap="round" stroke-linejoin="round"/>
<path d="M52.25 865.875C52.25 873.12 46.37 879 39.125 879C31.88 879 26 873.12 26 865.875C26 858.63 31.88 852.75 39.125 852.75C46.37 852.75 52.25 858.63 52.25 865.875ZM39.125 858V865.5Z" fill="black"/>
<path d="M39.125 858V865.5M52.25 865.875C52.25 873.12 46.37 879 39.125 879C31.88 879 26 873.12 26 865.875C26 858.63 31.88 852.75 39.125 852.75C46.37 852.75 52.25 858.63 52.25 865.875Z" stroke="white" stroke-width="2" stroke-linecap="round" stroke-linejoin="round"/>
<path d="M34.625 849H43.625Z" fill="black"/>
<path d="M34.625 849H43.625" stroke="white" stroke-width="2" stroke-miterlimit="10" stroke-linecap="round" stroke-linejoin="round"/>
<path d="M38.5 1001.5C43.465 1001.5 47.5 997.465 47.5 992.5V985C47.5 980.035 43.465 976 38.5 976C33.535 976 29.5 980.035 29.5 985V992.5C29.5 997.465 33.535 1001.5 38.5 1001.5Z" fill="black" stroke="white" stroke-width="2" stroke-linecap="round" stroke-linejoin="round"/>
<path d="M25 989.5V992.5C25 996.08 26.4223 999.514 28.9541 1002.05C31.4858 1004.58 34.9196 1006 38.5 1006C42.0804 1006 45.5142 1004.58 48.0459 1002.05C50.5777 999.514 52 996.08 52 992.5V989.5M34.165 984.22C36.8286 983.245 39.7514 983.245 42.415 984.22ZM35.545 988.72C37.345 988.225 39.25 988.225 41.05 988.72Z" fill="black"/>
<path d="M25 989.5V992.5C25 996.08 26.4223 999.514 28.9541 1002.05C31.4858 1004.58 34.9196 1006 38.5 1006C42.0804 1006 45.5142 1004.58 48.0459 1002.05C50.5777 999.514 52 996.08 52 992.5V989.5M34.165 984.22C36.8286 983.245 39.7514 983.245 42.415 984.22M35.545 988.72C37.345 988.225 39.25 988.225 41.05 988.72" stroke="white" stroke-width="2" stroke-linecap="round" stroke-linejoin="round"/>
<path d="M1250.62 1440H1240.9C1235.26 1440 1234.83 1445.07 1237.87 1447.83L1253.65 1462.17C1256.7 1464.93 1256.26 1470 1250.62 1470H1240.9C1235.26 1470 1234.83 1464.93 1237.87 1462.17L1253.65 1447.83C1256.7 1445.07 1256.26 1440 1250.62 1440Z" fill="black" stroke="white" stroke-width="2" stroke-linecap="round" stroke-linejoin="round"/>
<path d="M1256.25 1240.88C1256.25 1248.12 1250.37 1254 1243.12 1254C1235.88 1254 1230 1248.12 1230 1240.88C1230 1233.63 1235.88 1227.75 1243.12 1227.75C1250.37 1227.75 1256.25 1233.63 1256.25 1240.88ZM1243.12 1233V1240.5Z" fill="black"/>
<path d="M1243.12 1233V1240.5M1256.25 1240.88C1256.25 1248.12 1250.37 1254 1243.12 1254C1235.88 1254 1230 1248.12 1230 1240.88C1230 1233.63 1235.88 1227.75 1243.12 1227.75C1250.37 1227.75 1256.25 1233.63 1256.25 1240.88Z" stroke="white" stroke-width="2" stroke-linecap="round" stroke-linejoin="round"/>
<path d="M1238.62 1224H1247.62Z" fill="black"/>
<path d="M1238.62 1224H1247.62" stroke="white" stroke-width="2" stroke-miterlimit="10" stroke-linecap="round" stroke-linejoin="round"/>
<path d="M1247.5 1357.5C1252.46 1357.5 1256.5 1353.46 1256.5 1348.5V1341C1256.5 1336.04 1252.46 1332 1247.5 1332C1242.54 1332 1238.5 1336.04 1238.5 1341V1348.5C1238.5 1353.46 1242.54 1357.5 1247.5 1357.5Z" fill="black" stroke="white" stroke-width="2" stroke-linecap="round" stroke-linejoin="round"/>
<path d="M1234 1345.5V1348.5C1234 1352.08 1235.42 1355.51 1237.95 1358.05C1240.49 1360.58 1243.92 1362 1247.5 1362C1251.08 1362 1254.51 1360.58 1257.05 1358.05C1259.58 1355.51 1261 1352.08 1261 1348.5V1345.5M1243.16 1340.22C1245.83 1339.25 1248.75 1339.25 1251.41 1340.22ZM1244.54 1344.72C1246.34 1344.23 1248.25 1344.23 1250.05 1344.72Z" fill="black"/>
<path d="M1234 1345.5V1348.5C1234 1352.08 1235.42 1355.51 1237.95 1358.05C1240.49 1360.58 1243.92 1362 1247.5 1362C1251.08 1362 1254.51 1360.58 1257.05 1358.05C1259.58 1355.51 1261 1352.08 1261 1348.5V1345.5M1243.16 1340.22C1245.83 1339.25 1248.75 1339.25 1251.41 1340.22M1244.54 1344.72C1246.34 1344.23 1248.25 1344.23 1250.05 1344.72" stroke="white" stroke-width="2" stroke-linecap="round" stroke-linejoin="round"/>
<path d="M47.6232 1836H37.9032C32.2632 1836 31.8282 1841.07 34.8732 1843.83L50.6532 1858.17C53.6982 1860.93 53.2632 1866 47.6232 1866H37.9032C32.2632 1866 31.8282 1860.93 34.8732 1858.17L50.6532 1843.83C53.6982 1841.07 53.2632 1836 47.6232 1836Z" fill="black" stroke="white" stroke-width="2" stroke-linecap="round" stroke-linejoin="round"/>
<path d="M50.25 1640.88C50.25 1648.12 44.37 1654 37.125 1654C29.88 1654 24 1648.12 24 1640.88C24 1633.63 29.88 1627.75 37.125 1627.75C44.37 1627.75 50.25 1633.63 50.25 1640.88ZM37.125 1633V1640.5Z" fill="black"/>
<path d="M37.125 1633V1640.5M50.25 1640.88C50.25 1648.12 44.37 1654 37.125 1654C29.88 1654 24 1648.12 24 1640.88C24 1633.63 29.88 1627.75 37.125 1627.75C44.37 1627.75 50.25 1633.63 50.25 1640.88Z" stroke="white" stroke-width="2" stroke-linecap="round" stroke-linejoin="round"/>
<path d="M32.625 1624H41.625Z" fill="black"/>
<path d="M32.625 1624H41.625" stroke="white" stroke-width="2" stroke-miterlimit="10" stroke-linecap="round" stroke-linejoin="round"/>
<path d="M37.5 1754.5C42.465 1754.5 46.5 1750.46 46.5 1745.5V1738C46.5 1733.04 42.465 1729 37.5 1729C32.535 1729 28.5 1733.04 28.5 1738V1745.5C28.5 1750.46 32.535 1754.5 37.5 1754.5Z" fill="black" stroke="white" stroke-width="2" stroke-linecap="round" stroke-linejoin="round"/>
<path d="M24 1742.5V1745.5C24 1749.08 25.4223 1752.51 27.9541 1755.05C30.4858 1757.58 33.9196 1759 37.5 1759C41.0804 1759 44.5142 1757.58 47.0459 1755.05C49.5777 1752.51 51 1749.08 51 1745.5V1742.5M33.165 1737.22C35.8286 1736.25 38.7514 1736.25 41.415 1737.22ZM34.545 1741.72C36.345 1741.23 38.25 1741.23 40.05 1741.72Z" fill="black"/>
<path d="M24 1742.5V1745.5C24 1749.08 25.4223 1752.51 27.9541 1755.05C30.4858 1757.58 33.9196 1759 37.5 1759C41.0804 1759 44.5142 1757.58 47.0459 1755.05C49.5777 1752.51 51 1749.08 51 1745.5V1742.5M33.165 1737.22C35.8286 1736.25 38.7514 1736.25 41.415 1737.22M34.545 1741.72C36.345 1741.23 38.25 1741.23 40.05 1741.72" stroke="white" stroke-width="2" stroke-linecap="round" stroke-linejoin="round"/>
<path d="M1253.62 2184H1243.9C1238.26 2184 1237.83 2189.07 1240.87 2191.83L1256.65 2206.17C1259.7 2208.93 1259.26 2214 1253.62 2214H1243.9C1238.26 2214 1237.83 2208.93 1240.87 2206.17L1256.65 2191.83C1259.7 2189.07 1259.26 2184 1253.62 2184Z" fill="black" stroke="white" stroke-width="2" stroke-linecap="round" stroke-linejoin="round"/>
<path d="M1291.25 1999.88C1291.25 2007.12 1285.37 2013 1278.12 2013C1270.88 2013 1265 2007.12 1265 1999.88C1265 1992.63 1270.88 1986.75 1278.12 1986.75C1285.37 1986.75 1291.25 1992.63 1291.25 1999.88ZM1278.12 1992V1999.5Z" fill="black"/>
<path d="M1278.12 1992V1999.5M1291.25 1999.88C1291.25 2007.12 1285.37 2013 1278.12 2013C1270.88 2013 1265 2007.12 1265 1999.88C1265 1992.63 1270.88 1986.75 1278.12 1986.75C1285.37 1986.75 1291.25 1992.63 1291.25 1999.88Z" stroke="white" stroke-width="2" stroke-linecap="round" stroke-linejoin="round"/>
<path d="M1273.62 1983H1282.62Z" fill="black"/>
<path d="M1273.62 1983H1282.62" stroke="white" stroke-width="2" stroke-miterlimit="10" stroke-linecap="round" stroke-linejoin="round"/>
<path d="M1262.5 2113.5C1267.46 2113.5 1271.5 2109.46 1271.5 2104.5V2097C1271.5 2092.04 1267.46 2088 1262.5 2088C1257.54 2088 1253.5 2092.04 1253.5 2097V2104.5C1253.5 2109.46 1257.54 2113.5 1262.5 2113.5Z" fill="black" stroke="white" stroke-width="2" stroke-linecap="round" stroke-linejoin="round"/>
<path d="M1249 2101.5V2104.5C1249 2108.08 1250.42 2111.51 1252.95 2114.05C1255.49 2116.58 1258.92 2118 1262.5 2118C1266.08 2118 1269.51 2116.58 1272.05 2114.05C1274.58 2111.51 1276 2108.08 1276 2104.5V2101.5M1258.16 2096.22C1260.83 2095.25 1263.75 2095.25 1266.41 2096.22ZM1259.54 2100.72C1261.34 2100.23 1263.25 2100.23 1265.05 2100.72Z" fill="black"/>
<path d="M1249 2101.5V2104.5C1249 2108.08 1250.42 2111.51 1252.95 2114.05C1255.49 2116.58 1258.92 2118 1262.5 2118C1266.08 2118 1269.51 2116.58 1272.05 2114.05C1274.58 2111.51 1276 2108.08 1276 2104.5V2101.5M1258.16 2096.22C1260.83 2095.25 1263.75 2095.25 1266.41 2096.22M1259.54 2100.72C1261.34 2100.23 1263.25 2100.23 1265.05 2100.72" stroke="white" stroke-width="2" stroke-linecap="round" stroke-linejoin="round"/>
<path d="M42.6232 2540H32.9032C27.2632 2540 26.8282 2545.07 29.8732 2547.83L45.6532 2562.17C48.6982 2564.93 48.2632 2570 42.6232 2570H32.9032C27.2632 2570 26.8282 2564.93 29.8732 2562.17L45.6532 2547.83C48.6982 2545.07 48.2632 2540 42.6232 2540Z" fill="black" stroke="white" stroke-width="2" stroke-linecap="round" stroke-linejoin="round"/>
<path d="M125.687 2954H97.3131C80.8493 2954 79.5795 2968.87 88.4682 2976.97L134.532 3019.03C143.42 3027.13 142.151 3042 125.687 3042H97.3131C80.8493 3042 79.5795 3027.13 88.4682 3019.03L134.532 2976.97C143.42 2968.87 142.151 2954 125.687 2954Z" fill="black" stroke="#EB0028" stroke-width="3" stroke-linecap="round" stroke-linejoin="round"/>
<path d="M32.25 2340.88C32.25 2348.12 26.37 2354 19.125 2354C11.88 2354 6 2348.12 6 2340.88C6 2333.63 11.88 2327.75 19.125 2327.75C26.37 2327.75 32.25 2333.63 32.25 2340.88ZM19.125 2333V2340.5Z" fill="black"/>
<path d="M19.125 2333V2340.5M32.25 2340.88C32.25 2348.12 26.37 2354 19.125 2354C11.88 2354 6 2348.12 6 2340.88C6 2333.63 11.88 2327.75 19.125 2327.75C26.37 2327.75 32.25 2333.63 32.25 2340.88Z" stroke="white" stroke-width="2" stroke-linecap="round" stroke-linejoin="round"/>
<path d="M14.625 2324H23.625Z" fill="black"/>
<path d="M14.625 2324H23.625" stroke="white" stroke-width="2" stroke-miterlimit="10" stroke-linecap="round" stroke-linejoin="round"/>
<path d="M14.5 2457.5C19.465 2457.5 23.5 2453.46 23.5 2448.5V2441C23.5 2436.04 19.465 2432 14.5 2432C9.535 2432 5.5 2436.04 5.5 2441V2448.5C5.5 2453.46 9.535 2457.5 14.5 2457.5Z" fill="black" stroke="white" stroke-width="2" stroke-linecap="round" stroke-linejoin="round"/>
<path d="M1 2445.5V2448.5C1 2452.08 2.42232 2455.51 4.95406 2458.05C7.4858 2460.58 10.9196 2462 14.5 2462C18.0804 2462 21.5142 2460.58 24.0459 2458.05C26.5777 2455.51 28 2452.08 28 2448.5V2445.5M10.165 2440.22C12.8286 2439.25 15.7514 2439.25 18.415 2440.22ZM11.545 2444.72C13.345 2444.23 15.25 2444.23 17.05 2444.72Z" fill="black"/>
<path d="M1 2445.5V2448.5C1 2452.08 2.42232 2455.51 4.95406 2458.05C7.4858 2460.58 10.9196 2462 14.5 2462C18.0804 2462 21.5142 2460.58 24.0459 2458.05C26.5777 2455.51 28 2452.08 28 2448.5V2445.5M10.165 2440.22C12.8286 2439.25 15.7514 2439.25 18.415 2440.22M11.545 2444.72C13.345 2444.23 15.25 2444.23 17.05 2444.72" stroke="white" stroke-width="2" stroke-linecap="round" stroke-linejoin="round"/>
<path d="M1276.62 2936H1266.9C1261.26 2936 1260.83 2941.07 1263.87 2943.83L1279.65 2958.17C1282.7 2960.93 1282.26 2966 1276.62 2966H1266.9C1261.26 2966 1260.83 2960.93 1263.87 2958.17L1279.65 2943.83C1282.7 2941.07 1282.26 2936 1276.62 2936Z" fill="black" stroke="white" stroke-width="2" stroke-linecap="round" stroke-linejoin="round"/>
<path d="M1276.25 2716.88C1276.25 2724.12 1270.37 2730 1263.12 2730C1255.88 2730 1250 2724.12 1250 2716.88C1250 2709.63 1255.88 2703.75 1263.12 2703.75C1270.37 2703.75 1276.25 2709.63 1276.25 2716.88ZM1263.12 2709V2716.5Z" fill="black"/>
<path d="M1263.12 2709V2716.5M1276.25 2716.88C1276.25 2724.12 1270.37 2730 1263.12 2730C1255.88 2730 1250 2724.12 1250 2716.88C1250 2709.63 1255.88 2703.75 1263.12 2703.75C1270.37 2703.75 1276.25 2709.63 1276.25 2716.88Z" stroke="white" stroke-width="2" stroke-linecap="round" stroke-linejoin="round"/>
<path d="M1258.62 2700H1267.62Z" fill="black"/>
<path d="M1258.62 2700H1267.62" stroke="white" stroke-width="2" stroke-miterlimit="10" stroke-linecap="round" stroke-linejoin="round"/>
<path d="M1290.5 2843.5C1295.46 2843.5 1299.5 2839.46 1299.5 2834.5V2827C1299.5 2822.04 1295.46 2818 1290.5 2818C1285.54 2818 1281.5 2822.04 1281.5 2827V2834.5C1281.5 2839.46 1285.54 2843.5 1290.5 2843.5Z" fill="black" stroke="white" stroke-width="2" stroke-linecap="round" stroke-linejoin="round"/>
<path d="M1277 2831.5V2834.5C1277 2838.08 1278.42 2841.51 1280.95 2844.05C1283.49 2846.58 1286.92 2848 1290.5 2848C1294.08 2848 1297.51 2846.58 1300.05 2844.05C1302.58 2841.51 1304 2838.08 1304 2834.5V2831.5M1286.16 2826.22C1288.83 2825.24 1291.75 2825.24 1294.41 2826.22ZM1287.54 2830.72C1289.34 2830.23 1291.25 2830.23 1293.05 2830.72Z" fill="black"/>
<path d="M1277 2831.5V2834.5C1277 2838.08 1278.42 2841.51 1280.95 2844.05C1283.49 2846.58 1286.92 2848 1290.5 2848C1294.08 2848 1297.51 2846.58 1300.05 2844.05C1302.58 2841.51 1304 2838.08 1304 2834.5V2831.5M1286.16 2826.22C1288.83 2825.24 1291.75 2825.24 1294.41 2826.22M1287.54 2830.72C1289.34 2830.23 1291.25 2830.23 1293.05 2830.72" stroke="white" stroke-width="2" stroke-linecap="round" stroke-linejoin="round"/>
<path d="M1283.62 663H1273.9C1268.26 663 1267.83 668.07 1270.87 670.83L1286.65 685.17C1289.7 687.93 1289.26 693 1283.62 693H1273.9C1268.26 693 1267.83 687.93 1270.87 685.17L1286.65 670.83C1289.7 668.07 1289.26 663 1283.62 663Z" fill="black" stroke="white" stroke-width="2" stroke-linecap="round" stroke-linejoin="round"/>
<path d="M1300.25 466.875C1300.25 474.12 1294.37 480 1287.12 480C1279.88 480 1274 474.12 1274 466.875C1274 459.63 1279.88 453.75 1287.12 453.75C1294.37 453.75 1300.25 459.63 1300.25 466.875ZM1287.12 459V466.5Z" fill="black"/>
<path d="M1287.12 459V466.5M1300.25 466.875C1300.25 474.12 1294.37 480 1287.12 480C1279.88 480 1274 474.12 1274 466.875C1274 459.63 1279.88 453.75 1287.12 453.75C1294.37 453.75 1300.25 459.63 1300.25 466.875Z" stroke="white" stroke-width="2" stroke-linecap="round" stroke-linejoin="round"/>
<path d="M1282.62 450H1291.62Z" fill="black"/>
<path d="M1282.62 450H1291.62" stroke="white" stroke-width="2" stroke-miterlimit="10" stroke-linecap="round" stroke-linejoin="round"/>
<path d="M1286.5 583.5C1291.46 583.5 1295.5 579.465 1295.5 574.5V567C1295.5 562.035 1291.46 558 1286.5 558C1281.54 558 1277.5 562.035 1277.5 567V574.5C1277.5 579.465 1281.54 583.5 1286.5 583.5Z" fill="black" stroke="white" stroke-width="2" stroke-linecap="round" stroke-linejoin="round"/>
<path d="M1273 571.5V574.5C1273 578.08 1274.42 581.514 1276.95 584.046C1279.49 586.578 1282.92 588 1286.5 588C1290.08 588 1293.51 586.578 1296.05 584.046C1298.58 581.514 1300 578.08 1300 574.5V571.5M1282.16 566.22C1284.83 565.245 1287.75 565.245 1290.41 566.22ZM1283.54 570.72C1285.34 570.225 1287.25 570.225 1289.05 570.72Z" fill="black"/>
<path d="M1273 571.5V574.5C1273 578.08 1274.42 581.514 1276.95 584.046C1279.49 586.578 1282.92 588 1286.5 588C1290.08 588 1293.51 586.578 1296.05 584.046C1298.58 581.514 1300 578.08 1300 574.5V571.5M1282.16 566.22C1284.83 565.245 1287.75 565.245 1290.41 566.22M1283.54 570.72C1285.34 570.225 1287.25 570.225 1289.05 570.72" stroke="white" stroke-width="2" stroke-linecap="round" stroke-linejoin="round"/>
<path d="M162 401L176.698 386.593C178.434 384.892 178.434 382.108 176.698 380.407L162 366" stroke="#EB0028" stroke-width="3" stroke-miterlimit="10" stroke-linecap="round" stroke-linejoin="round"/>
<path d="M1143 371L1157.7 356.593C1159.43 354.892 1159.43 352.108 1157.7 350.407L1143 336" stroke="#EB0028" stroke-width="3" stroke-miterlimit="10" stroke-linecap="round" stroke-linejoin="round"/>
<path d="M1121 758L1106.3 772.407C1104.57 774.108 1104.57 776.892 1106.3 778.593L1121 793" stroke="#EB0028" stroke-width="3" stroke-miterlimit="10" stroke-linecap="round" stroke-linejoin="round"/>
<path d="M170 758L155.302 772.407C153.566 774.108 153.566 776.892 155.302 778.593L170 793" stroke="#EB0028" stroke-width="3" stroke-miterlimit="10" stroke-linecap="round" stroke-linejoin="round"/>
<path d="M149 1220L163.698 1205.59C165.434 1203.89 165.434 1201.11 163.698 1199.41L149 1185" stroke="#EB0028" stroke-width="3" stroke-miterlimit="10" stroke-linecap="round" stroke-linejoin="round"/>
<path d="M1147 1192L1161.7 1177.59C1163.43 1175.89 1163.43 1173.11 1161.7 1171.41L1147 1157" stroke="#EB0028" stroke-width="3" stroke-miterlimit="10" stroke-linecap="round" stroke-linejoin="round"/>
<path d="M1125 1536L1110.3 1550.41C1108.57 1552.11 1108.57 1554.89 1110.3 1556.59L1125 1571" stroke="#EB0028" stroke-width="3" stroke-miterlimit="10" stroke-linecap="round" stroke-linejoin="round"/>
<path d="M157 1536L142.302 1550.41C140.566 1552.11 140.566 1554.89 142.302 1556.59L157 1571" stroke="#EB0028" stroke-width="3" stroke-miterlimit="10" stroke-linecap="round" stroke-linejoin="round"/>
<path d="M157 1963L171.698 1948.59C173.434 1946.89 173.434 1944.11 171.698 1942.41L157 1928" stroke="#EB0028" stroke-width="3" stroke-miterlimit="10" stroke-linecap="round" stroke-linejoin="round"/>
<path d="M1138 1944L1152.7 1929.59C1154.43 1927.89 1154.43 1925.11 1152.7 1923.41L1138 1909" stroke="#EB0028" stroke-width="3" stroke-miterlimit="10" stroke-linecap="round" stroke-linejoin="round"/>
<path d="M1127.99 2261.49L1117.72 2279.33C1116.5 2281.43 1117.25 2284.11 1119.38 2285.28L1137.42 2295.2" stroke="#EB0028" stroke-width="3" stroke-miterlimit="10" stroke-linecap="round" stroke-linejoin="round"/>
<path d="M119 2261L104.302 2275.41C102.566 2277.11 102.566 2279.89 104.302 2281.59L119 2296" stroke="#EB0028" stroke-width="3" stroke-miterlimit="10" stroke-linecap="round" stroke-linejoin="round"/>
<path d="M119 2645L133.698 2630.59C135.434 2628.89 135.434 2626.11 133.698 2624.41L119 2610" stroke="#EB0028" stroke-width="3" stroke-miterlimit="10" stroke-linecap="round" stroke-linejoin="round"/>
<path d="M1136 2638L1150.7 2623.59C1152.43 2621.89 1152.43 2619.11 1150.7 2617.41L1136 2603" stroke="#EB0028" stroke-width="3" stroke-miterlimit="10" stroke-linecap="round" stroke-linejoin="round"/>
<path d="M1163 3007L1148.3 3021.41C1146.57 3023.11 1146.57 3025.89 1148.3 3027.59L1163 3042" stroke="#EB0028" stroke-width="3" stroke-miterlimit="10" stroke-linecap="round" stroke-linejoin="round"/>
<path d="M62.8333 27.4167C62.8333 41.4467 51.4467 52.8333 37.4167 52.8333C23.3867 52.8333 12 41.4467 12 27.4167C12 13.3867 23.3867 2 37.4167 2C51.4467 2 62.8333 13.3867 62.8333 27.4167Z" stroke="#EB0028" stroke-width="3" stroke-linecap="round" stroke-linejoin="round"/>
<path d="M46.8466 35.4992L38.9674 30.7971C37.5949 29.9838 36.4766 28.0267 36.4766 26.4255V16.0046" stroke="#EB0028" stroke-width="3" stroke-linecap="round" stroke-linejoin="round"/>
</svg>
