<svg width="1512" height="652" viewBox="0 0 1512 652" fill="none" xmlns="http://www.w3.org/2000/svg">
<path d="M1006 107.208C1012.57 107.208 1016.99 107.708 1022.5 103.77C1045.97 87.0106 1066.32 66.5865 1088.69 48.5014C1099.27 39.9496 1112.34 24.4443 1125.48 20.2224C1146.78 13.3739 1186.39 2.91411 1201.72 26.7549C1207.94 36.4254 1214.5 50.1072 1208.68 61.9963C1204.43 70.6806 1183.52 89.524 1171.55 90.1893C1146.65 91.5725 1132.87 61.3635 1132.87 39.9919C1132.87 14.1652 1161.44 2 1183.93 2C1206.28 2 1225.42 14.6717 1235.33 34.4908C1247.15 58.1281 1231.22 82.1334 1225.7 104.2C1221.85 119.585 1214.97 134.794 1210.57 150.186C1204.52 171.355 1207.13 196.898 1207.13 218.605" stroke="#EB0028" stroke-width="3" stroke-linecap="round" stroke-dasharray="6 6"/>
<path d="M1212.51 219.74L1208.89 223.925C1208.35 224.564 1207.31 224.731 1206.6 224.294L1201.86 221.45C1200.81 221.121 1199.7 221.795 1199.51 222.892L1199.11 225.404C1199 226.009 1199.33 226.82 1199.83 227.182L1204.56 230.617C1204.91 230.855 1205.24 231.391 1205.3 231.803L1206.12 236.913C1206.24 237.667 1205.74 238.114 1205 237.94L1195.58 235.551C1194.11 235.181 1193.1 236.098 1193.34 237.604L1193.71 239.917C1193.9 241.118 1195.02 242.355 1196.21 242.643L1206.92 245.355C1207.09 245.41 1207.24 245.506 1207.36 245.636C1207.47 245.765 1207.56 245.923 1207.59 246.094L1208.46 251.473C1208.73 253.158 1210.28 254.95 1211.91 255.479C1212.5 255.662 1213.12 255.561 1213.62 255.206C1215 254.193 1215.92 251.987 1215.65 250.301L1214.78 244.922C1214.73 244.599 1214.92 244.182 1215.19 244.011L1224.5 238.084C1225.54 237.457 1226.21 235.933 1226.02 234.732L1225.65 232.419C1225.41 230.912 1224.16 230.358 1222.87 231.172L1214.68 236.386C1214.05 236.8 1213.41 236.516 1213.29 235.762L1212.47 230.652C1212.41 230.24 1212.55 229.629 1212.79 229.296L1216.2 224.554C1216.56 224.055 1216.63 223.199 1216.34 222.639L1215.17 220.38C1214.68 219.392 1213.41 219.08 1212.51 219.74Z" stroke="white" stroke-opacity="0.9" stroke-width="1.5" stroke-linecap="round" stroke-linejoin="round"/>
<g clip-path="url(#clip0_348_30)">
<path d="M312.033 19.3773L313.096 24.8033C313.265 25.6233 312.754 26.5446 311.97 26.8366L306.806 28.8133C305.902 29.4336 305.75 30.7196 306.495 31.5477L308.221 33.417C308.632 33.8733 309.476 34.1121 310.068 33.942L315.688 32.3422C316.091 32.213 316.714 32.288 317.08 32.4904L321.607 34.9982C322.274 35.3678 322.319 36.0362 321.722 36.515L314.034 42.4494C312.832 43.3822 312.929 44.7438 314.263 45.4829L316.312 46.618C317.377 47.2076 319.04 47.0908 319.998 46.3347L328.746 39.5752C328.891 39.4778 329.059 39.42 329.234 39.4074C329.408 39.3948 329.583 39.4279 329.74 39.5034L334.506 42.1432C335.999 42.9704 338.37 42.851 339.792 41.8949C340.294 41.5504 340.602 40.9944 340.628 40.3858C340.684 38.673 339.512 36.5914 338.019 35.7643L333.253 33.1245C332.967 32.9661 332.757 32.5589 332.786 32.2431L333.868 21.2583C334.016 20.0534 333.233 18.5816 332.169 17.9921L330.119 16.8569C328.785 16.1178 327.579 16.7578 327.426 18.2714L326.473 27.9367C326.409 28.69 325.794 29.0135 325.127 28.6439L320.599 26.1361C320.234 25.9338 319.84 25.4457 319.727 25.0507L318.102 19.4384C317.932 18.846 317.298 18.2665 316.677 18.1508L314.177 17.6795C313.097 17.4551 312.072 18.2572 312.033 19.3773Z" stroke="white" stroke-opacity="0.9" stroke-width="1.5" stroke-linecap="round" stroke-linejoin="round"/>
</g>
<g clip-path="url(#clip1_348_30)">
<path d="M138.916 281.788L144.417 281.227C145.249 281.134 146.12 281.727 146.339 282.535L147.833 287.859C148.368 288.816 149.635 289.085 150.528 288.419L152.547 286.872C153.039 286.504 153.355 285.686 153.24 285.08L152.162 279.338C152.07 278.924 152.202 278.311 152.437 277.965L155.35 273.687C155.779 273.057 156.449 273.073 156.871 273.712L162.075 281.912C162.893 283.194 164.258 283.223 165.117 281.962L166.435 280.025C167.12 279.019 167.156 277.353 166.491 276.329L160.562 266.998C160.479 266.845 160.436 266.672 160.44 266.497C160.443 266.322 160.492 266.151 160.582 266.001L163.648 261.498C164.608 260.087 164.707 257.715 163.885 256.211C163.588 255.68 163.063 255.322 162.459 255.24C160.759 255.028 158.579 256.004 157.618 257.415L154.552 261.918C154.368 262.188 153.943 262.361 153.632 262.302L142.792 260.218C141.606 259.959 140.069 260.604 139.384 261.61L138.066 263.546C137.207 264.807 137.734 266.067 139.227 266.358L148.764 268.193C149.509 268.327 149.774 268.969 149.345 269.599L146.433 273.878C146.198 274.223 145.675 274.57 145.272 274.647L139.534 275.75C138.929 275.865 138.293 276.443 138.121 277.051L137.423 279.497C137.1 280.552 137.805 281.646 138.916 281.788Z" stroke="white" stroke-opacity="0.9" stroke-width="1.5" stroke-linecap="round" stroke-linejoin="round"/>
</g>
<g clip-path="url(#clip2_348_30)">
<path d="M44.9745 609.594L40.0199 607.14C39.2663 606.775 38.8451 605.81 39.0902 605.009L40.6601 599.708C40.7172 598.613 39.7885 597.71 38.6778 597.799L36.1446 598.032C35.5321 598.082 34.8297 598.606 34.6046 599.18L32.4585 604.614C32.3157 605.013 31.8775 605.462 31.4947 605.629L26.7511 607.699C26.052 608.004 25.494 607.634 25.477 606.868L25.4393 597.156C25.4293 595.635 24.2893 594.884 22.8912 595.494L20.7441 596.431C19.6289 596.918 18.7105 598.309 18.7281 599.53L18.777 610.585C18.766 610.759 18.7098 610.928 18.6137 611.074C18.5177 611.22 18.3852 611.339 18.2293 611.418L13.2361 613.597C11.6715 614.28 10.3252 616.234 10.2196 617.945C10.1879 618.553 10.4421 619.136 10.9096 619.526C12.2354 620.612 14.6007 620.947 16.1653 620.264L21.1585 618.085C21.4581 617.954 21.9093 618.035 22.1421 618.25L30.2062 625.787C31.0726 626.638 32.7174 626.91 33.8325 626.424L35.9796 625.487C37.3777 624.877 37.6026 623.53 36.494 622.488L29.3992 615.856C28.8402 615.347 28.9573 614.662 29.6564 614.357L34.4 612.287C34.7828 612.12 35.4098 612.104 35.7923 612.254L41.236 614.376C41.8097 614.601 42.6553 614.45 43.1246 614.027L45.0187 612.329C45.8533 611.608 45.84 610.306 44.9745 609.594Z" stroke="white" stroke-opacity="0.9" stroke-width="1.5" stroke-linecap="round" stroke-linejoin="round"/>
</g>
<g clip-path="url(#clip3_348_30)">
<path d="M1308.4 566.171L1303.32 563.99C1302.55 563.667 1302.08 562.727 1302.28 561.914L1303.56 556.534C1303.55 555.438 1302.58 554.588 1301.47 554.737L1298.96 555.108C1298.35 555.191 1297.68 555.753 1297.48 556.338L1295.64 561.881C1295.51 562.288 1295.1 562.76 1294.73 562.947L1290.1 565.273C1289.42 565.616 1288.85 565.276 1288.79 564.513L1288.22 554.818C1288.13 553.299 1286.95 552.612 1285.58 553.297L1283.49 554.35C1282.4 554.897 1281.56 556.336 1281.65 557.554L1282.3 568.59C1282.3 568.764 1282.25 568.936 1282.16 569.087C1282.08 569.238 1281.95 569.364 1281.8 569.452L1276.93 571.9C1275.41 572.667 1274.17 574.692 1274.16 576.406C1274.16 577.015 1274.44 577.583 1274.93 577.947C1276.32 578.959 1278.7 579.164 1280.22 578.397L1285.09 575.949C1285.38 575.802 1285.83 575.858 1286.08 576.06L1294.54 583.146C1295.45 583.948 1297.11 584.13 1298.2 583.584L1300.29 582.531C1301.65 581.845 1301.8 580.489 1300.64 579.509L1293.19 573.273C1292.61 572.796 1292.69 572.105 1293.37 571.762L1297.99 569.437C1298.37 569.249 1298.99 569.199 1299.38 569.328L1304.93 571.15C1305.52 571.343 1306.35 571.146 1306.8 570.698L1308.6 568.899C1309.39 568.134 1309.31 566.835 1308.4 566.171Z" stroke="white" stroke-opacity="0.9" stroke-width="1.5" stroke-linecap="round" stroke-linejoin="round"/>
</g>
<path d="M1362.81 424.93L1359.69 420.369C1359.21 419.683 1359.31 418.634 1359.91 418.055L1363.87 414.195C1364.46 413.267 1364.09 412.026 1363.08 411.561L1360.75 410.529C1360.19 410.273 1359.32 410.387 1358.85 410.778L1354.32 414.473C1354 414.752 1353.4 414.929 1352.98 414.888L1347.83 414.379C1347.07 414.304 1346.77 413.708 1347.13 413.032L1351.84 404.537C1352.57 403.205 1351.94 401.993 1350.42 401.843L1348.09 401.612C1346.88 401.493 1345.4 402.259 1344.82 403.333L1339.47 413.004C1339.37 413.151 1339.24 413.271 1339.08 413.351C1338.93 413.432 1338.75 413.471 1338.58 413.464L1333.16 412.928C1331.46 412.76 1329.33 413.808 1328.4 415.249C1328.08 415.765 1328.02 416.397 1328.23 416.966C1328.86 418.561 1330.76 420.008 1332.46 420.176L1337.88 420.712C1338.21 420.745 1338.56 421.035 1338.66 421.337L1342.02 431.851C1342.36 433.017 1343.66 434.058 1344.87 434.178L1347.2 434.408C1348.72 434.558 1349.57 433.493 1349.12 432.042L1346.16 422.79C1345.92 422.073 1346.36 421.532 1347.12 421.608L1352.27 422.117C1352.68 422.158 1353.24 422.45 1353.5 422.768L1357.21 427.278C1357.61 427.754 1358.42 428.035 1359.03 427.895L1361.52 427.338C1362.6 427.116 1363.22 425.974 1362.81 424.93Z" stroke="white" stroke-opacity="0.9" stroke-width="1.5" stroke-linecap="round" stroke-linejoin="round"/>
<path d="M339.337 227.955C339.337 238.699 337.394 248.315 336.553 258.818C335.534 271.556 332.547 284.818 330.031 297.398C326.235 316.375 323.862 336.157 317.86 354.592C310.545 377.06 304.937 401.058 292.087 421.251C284.66 432.923 276.486 447.024 261.303 447.024C231.216 447.024 217.632 414.658 217.632 388.319C217.632 378.242 227.858 381.865 233.382 379.41C243.487 374.919 258.315 372.896 268.86 376.546C294.41 385.391 294.951 418.35 294.951 439.945C294.951 457.571 286.999 471.335 278.485 486.4C268.277 504.459 250.864 514.868 235.53 527.843C224.774 536.944 204.731 532.617 191.859 534.048C175.826 535.829 160.742 537.054 145.086 541.843C136.908 544.345 128.014 545.233 121.7 551.548C113.794 559.453 103.47 564.45 97.6767 574.457C86.2058 594.27 63.6066 594.912 44.3809 604.525" stroke="#EB0028" stroke-width="3" stroke-linecap="round" stroke-dasharray="6 6"/>
<path d="M1168.37 507.161C1168.37 493.874 1171.23 482.664 1174.41 469.933C1178.59 453.225 1181.55 438.222 1188.73 422.524C1197.37 403.627 1207.4 383.971 1220.71 367.796C1229.3 357.35 1237.37 344.678 1247.91 336.057C1289.63 301.923 1364.07 294.12 1402.39 339.16C1420.66 360.636 1450.45 403.723 1437.55 435.251C1428.02 458.549 1412.57 472.467 1392.45 486.399C1376.75 497.268 1354.4 504.759 1344.48 522.116C1341.93 526.576 1333.22 529.603 1329.45 534.366C1323.61 541.743 1316.63 557.012 1307.25 560.139" stroke="#EB0028" stroke-width="3" stroke-linecap="round" stroke-dasharray="6 6"/>
<path d="M342.201 650.344C342.201 632.602 334.266 619.172 327.803 603.014C322.395 589.493 313.806 582.63 305.292 571.593C277.7 535.826 232.71 514.566 200.052 483.774C174.005 459.216 150.652 426.471 140.95 391.819C134.585 369.088 134.586 346.215 134.586 322.773C134.586 309.701 136.353 296.601 143.177 285.228" stroke="#EB0028" stroke-width="3" stroke-linecap="round" stroke-dasharray="6 6"/>
<path d="M-2 282.932C7.70959 282.932 17.9952 280.987 27.1934 277.921C39.1347 273.94 48.3334 261.628 56.5458 252.705C70.8145 237.201 83.9908 220.211 95.4438 202.511C109.914 180.149 120.226 155.785 132.592 132.272C151.431 96.4504 170.95 60.4896 208.161 41.4305C234.019 28.1858 261.559 19.4758 290.411 19.4758C297.081 19.4758 302.45 22.2072 308.707 23.7713" stroke="#EB0028" stroke-width="3" stroke-linecap="round" stroke-dasharray="6 6"/>
<path d="M1512 48.9761C1506.47 49.5906 1499.07 55.4133 1494.19 57.8852C1491.45 59.2704 1481.94 62.713 1481.94 66.8739C1481.94 73.1506 1474.9 77.4858 1470.8 81.5899C1465.34 87.0527 1464.37 91.1103 1461.09 97.6582C1443.75 132.356 1437.76 172.729 1432.93 210.773C1426.92 258.215 1415.06 303.872 1405.33 350.614C1401.41 369.453 1399.79 393.419 1389.58 410.433C1387.16 414.469 1385.05 417.165 1380.59 418.706C1375.52 420.462 1369.92 419.819 1364.53 419.819" stroke="#EB0028" stroke-width="3" stroke-linecap="round" stroke-dasharray="6 6"/>
<defs>
<clipPath id="clip0_348_30">
<rect width="43.5837" height="43.5837" fill="white" transform="translate(354.434 24.1182) rotate(118.983)"/>
</clipPath>
<clipPath id="clip1_348_30">
<rect width="43.5837" height="43.5837" fill="white" transform="translate(147.527 240) rotate(34.2458)"/>
</clipPath>
<clipPath id="clip2_348_30">
<rect width="43.5837" height="43.5837" fill="white" transform="translate(15.4316 640.378) rotate(-113.576)"/>
</clipPath>
<clipPath id="clip3_348_30">
<rect width="43.5837" height="43.5837" fill="white" transform="translate(1280.59 598.521) rotate(-116.704)"/>
</clipPath>
</defs>
</svg>
